HIERARCHY
ROOT root
{
	OFFSET	0	13.1	24.9
	CHANNELS 6  Xposition Yposition Zposition Xrotation Yrotation Zrotation
	JOINT spine_1
	{
		OFFSET	0	9.99999	0
		CHANNELS 3  Xrotation Yrotation Zrotation
		JOINT spine_2
		{
			OFFSET	0	112	-10
			CHANNELS 3  Xrotation Yrotation Zrotation
			JOINT spine_3
			{
				OFFSET	0	206.5	19.3
				CHANNELS 3  Xrotation Yrotation Zrotation
				JOINT spine_4
				{
					OFFSET	0	110.4	14.6
					CHANNELS 3  Xrotation Yrotation Zrotation
					JOINT neck_1
					{
						OFFSET	0	71.8	-50.3
						CHANNELS 3  Xrotation Yrotation Zrotation
						JOINT neck_2
						{
							OFFSET	0	86.2	-25.8
							CHANNELS 3  Xrotation Yrotation Zrotation
							JOINT head_ee
							{
								OFFSET	0	179.8	-8.7
								CHANNELS 3  Xrotation Yrotation Zrotation
								End Site
								{
									OFFSET	1	0	0
								}
							}
						}
					}
					JOINT left_clavicle
					{
						OFFSET	-43.2	22.4	-70.8
						CHANNELS 3  Xrotation Yrotation Zrotation
						JOINT left_shoulder
						{
							OFFSET	-93.9	-5.79999	48.7
							CHANNELS 3  Xrotation Yrotation Zrotation
							JOINT left_elbow
							{
								OFFSET	-291.4	-30.8	15.2
								CHANNELS 3  Xrotation Yrotation Zrotation
								JOINT left_lowarm_twist
								{
									OFFSET	-110.7	-3.89999	13.6
									CHANNELS 3  Xrotation Yrotation Zrotation
									JOINT left_hand
									{
										OFFSET	-110.7	-3.89999	13.6
										CHANNELS 3  Xrotation Yrotation Zrotation
										JOINT left_ee
										{
											OFFSET	-80.8	-5.10001	12.1
											CHANNELS 3  Xrotation Yrotation Zrotation
											End Site
											{
												OFFSET	1	0	0
											}
										}
									}
								}
							}
						}
					}
					JOINT right_clavicle
					{
						OFFSET	43.2	22.4	-70.8
						CHANNELS 3  Xrotation Yrotation Zrotation
						JOINT right_shoulder
						{
							OFFSET	93.9	-5.79999	48.7
							CHANNELS 3  Xrotation Yrotation Zrotation
							JOINT right_elbow
							{
								OFFSET	291.4	-30.8	15.2
								CHANNELS 3  Xrotation Yrotation Zrotation
								JOINT right_lowarm_twist
								{
									OFFSET	110.7	-3.89999	13.6
									CHANNELS 3  Xrotation Yrotation Zrotation
									JOINT right_hand
									{
										OFFSET	110.7	-3.89999	13.6
										CHANNELS 3  Xrotation Yrotation Zrotation
										JOINT right_ee
										{
											OFFSET	80.8	-5.10001	12.1
											CHANNELS 3  Xrotation Yrotation Zrotation
											End Site
											{
												OFFSET	1	0	0
											}
										}
									}
								}
							}
						}
					}
				}
			}
		}
	}
	JOINT left_hip
	{
		OFFSET	-82.8	-127.5	0.300001
		CHANNELS 3  Xrotation Yrotation Zrotation
		JOINT left_knee
		{
			OFFSET	-28.2	-396.7	2.2
			CHANNELS 3  Xrotation Yrotation Zrotation
			JOINT left_ankle
			{
				OFFSET	-11.7	-411.3	35.4
				CHANNELS 3  Xrotation Yrotation Zrotation
				JOINT left_toes
				{
					OFFSET	0	-60	-88.6
					CHANNELS 3  Xrotation Yrotation Zrotation
					JOINT left_foot_ee
					{
						OFFSET	-22.5	-16.5	-42.2
						CHANNELS 3  Xrotation Yrotation Zrotation
						End Site
						{
							OFFSET	1	0	0
						}
					}
				}
			}
		}
	}
	JOINT right_hip
	{
		OFFSET	82.8	-127.5	0.300001
		CHANNELS 3  Xrotation Yrotation Zrotation
		JOINT right_knee
		{
			OFFSET	28.2	-396.7	2.2
			CHANNELS 3  Xrotation Yrotation Zrotation
			JOINT right_ankle
			{
				OFFSET	11.7	-411.3	35.4
				CHANNELS 3  Xrotation Yrotation Zrotation
				JOINT right_toes
				{
					OFFSET	0	-60	-88.6
					CHANNELS 3  Xrotation Yrotation Zrotation
					JOINT right_foot_ee
					{
						OFFSET	22.5	-16.5	-42.2
						CHANNELS 3  Xrotation Yrotation Zrotation
						End Site
						{
							OFFSET	1	0	0
						}
					}
				}
			}
		}
	}
}
MOTION
Frames: 15
Frame Time: 0.02
3663.26 760.042 -1313.16 -14.8381 84.9641 15.0099 0.238909 -0.130454 -0.297115 0.238951 -0.111283 -0.304814 0.239576 -0.0460774 -0.321205 0.239445 -0.0962272 -0.309897 3.20687 -0.0750406 2.50925 3.2345 -2.27778 2.79976 -0.0 0.0 -0.0 4.78115 -5.43698 8.99382 -3.72856 -15.0432 69.2549 1.63404 -38.9856 0.578447 -0.604007 -0.0216732 0.0740912 0.880627 -7.41299 2.80011 -0.0 0.0 -0.0 5.08073 -2.81713 -9.89531 -19.0034 3.33463 -61.6613 1.02446 26.9067 -0.245076 8.51893 -0.221341 1.0647 0.630413 -1.10946 -4.66931 0.0 0.0 0.0 -7.78501 -18.2214 7.16736 5.48541 -0.264433 -0.799694 30.3279 26.3347 -4.17934 -21.1711 0.0 0.0 -0.0 0.0 -0.0 -2.60656 -11.5879 1.50256 2.28494 0.100814 0.336098 20.4161 8.57805 2.88902 -20.5949 0.0 0.0 0.0 0.0 0.0 
3659.95 756.533 -1315.51 -15.763 85.3871 15.4945 0.258143 -0.150677 -0.288985 0.25818 -0.131983 -0.297988 0.258899 -0.0678476 -0.318768 0.258777 -0.117339 -0.304052 3.57847 -0.170848 2.55023 3.60866 -2.4888 2.85286 -0.0 0.0 -0.0 4.89369 -5.44628 9.22188 -3.47859 -15.2125 69.0019 1.60112 -38.4168 0.557866 -0.685195 -0.0246457 0.0840331 0.781164 -7.3882 2.13859 -0.0 0.0 -0.0 5.05928 -3.06672 -9.8603 -19.3736 3.21489 -61.5808 1.00708 26.5131 -0.237263 8.50693 -0.221141 1.06318 0.62774 -1.06755 -4.63429 0.0 0.0 0.0 -8.15833 -18.1673 7.29415 5.49461 -0.26494 -0.801013 30.7194 26.1641 -4.22005 -21.0094 0.0 0.0 -0.0 0.0 -0.0 -2.48663 -11.9735 1.91178 1.00791 0.0428144 0.14874 21.3631 8.89196 3.01295 -20.2668 0.0 0.0 0.0 0.0 0.0 
3656.62 755.495 -1315.78 -12.0214 84.5113 11.7142 0.274246 0.0210791 -0.296303 0.274294 0.0398908 -0.294361 0.274101 0.0995307 -0.279881 0.273996 0.0540798 -0.292088 3.42877 -0.203 2.50889 3.45827 -2.50541 2.7988 -0.0 0.0 -0.0 5.0067 -5.62812 9.44261 -3.62929 -15.5758 69.1074 1.61123 -38.5924 0.564158 -0.973993 -0.0353348 0.119363 0.86033 -7.61024 2.57915 -0.0 0.0 -0.0 5.18605 -1.83047 -10.0732 -20.3441 3.60783 -61.4887 1.00682 26.5072 -0.237148 8.47759 -0.220651 1.05946 0.62505 -1.09784 -4.62872 0.0 0.0 0.0 -8.26765 -19.1346 7.36474 5.43132 -0.261453 -0.791936 30.7305 26.1238 -4.22025 -20.91 0.0 0.0 -0.0 0.0 -0.0 -2.79349 -11.7952 1.5839 1.35143 0.0580047 0.199263 22.4164 8.77676 3.14215 -19.3164 0.0 0.0 0.0 0.0 0.0 
3652.63 755.472 -1321.66 -13.0893 85.3897 12.6598 0.223477 -0.133303 -0.280407 0.223514 -0.11519 -0.288321 0.224124 -0.0532164 -0.305885 0.224008 -0.100857 -0.293642 3.54016 -0.0886541 2.24886 3.56288 -2.08628 2.51825 -0.0 0.0 -0.0 5.34803 -4.20344 10.1985 -4.48189 -15.5132 67.7554 1.61858 -38.7196 0.56875 -0.971078 -0.0352259 0.119007 0.908573 -7.37077 3.00692 -0.0 0.0 -0.0 5.27591 -2.70573 -10.2645 -19.8842 4.2203 -61.4101 0.993446 26.2024 -0.231209 8.55668 -0.221967 1.06948 0.597006 -1.45976 -4.58956 0.0 0.0 0.0 -8.76367 -19.1455 6.93588 5.18939 -0.248213 -0.757199 30.1979 26.1435 -4.15917 -21.2001 0.0 0.0 -0.0 0.0 -0.0 -2.62562 -11.8516 1.40281 0.116729 0.00482438 0.0172634 22.6198 8.06258 3.15646 -19.3479 0.0 0.0 0.0 0.0 0.0 
3651.08 748.51 -1325.9 -14.4442 84.8307 13.9991 0.33819 0.182424 -0.404348 0.338257 0.207784 -0.391921 0.336821 0.283519 -0.341165 0.33673 0.226081 -0.381659 3.38311 0.198888 2.5776 3.40918 -1.86528 2.90078 -0.0 0.0 -0.0 4.5879 -4.43625 8.65475 -4.04428 -16.8125 69.02 1.62472 -38.8255 0.572595 -0.829561 -0.0299666 0.101701 0.800348 -8.28941 1.88489 -0.0 0.0 -0.0 5.26524 -2.40484 -10.238 -18.7488 3.51881 -61.4145 0.897679 23.9736 -0.190596 8.89831 -0.227494 1.11277 0.557017 -1.41392 -4.30397 0.0 0.0 0.0 -8.19135 -21.3197 6.09729 5.8173 -0.282881 -0.847241 30.1817 25.8371 -4.14932 -21.4318 0.0 0.0 -0.0 0.0 -0.0 -2.12182 -12.1646 1.40358 -2.50576 -0.0950309 -0.372778 26.9032 10.1113 3.70113 -19.8515 0.0 0.0 0.0 0.0 0.0 
3650.17 747.425 -1330.17 -16.8397 84.0072 16.5751 0.416027 0.315464 -0.488927 0.416093 0.345936 -0.467863 0.413216 0.433766 -0.387833 0.413194 0.367072 -0.451471 4.0531 0.443363 3.0933 4.08872 -1.90932 3.52088 -0.0 0.0 -0.0 4.51721 -4.11533 8.52917 -4.53919 -18.4603 69.1272 1.56224 -37.7332 0.533885 -0.975073 -0.0353749 0.119495 0.850666 -9.07648 1.88895 -0.0 0.0 -0.0 5.39887 -1.878 -10.4834 -18.6651 3.62767 -61.5394 0.854764 22.9488 -0.173509 9.09517 -0.230561 1.13773 0.513582 -1.26998 -3.95514 0.0 0.0 0.0 -8.37588 -21.3367 5.91111 5.90881 -0.288015 -0.860332 31.6579 24.2976 -4.2787 -21.3246 0.0 0.0 -0.0 0.0 -0.0 0.228956 -14.5353 0.971898 -5.38006 -0.183826 -0.804914 28.1625 7.21221 3.79341 -20.011 0.0 0.0 0.0 0.0 0.0 
3644.1 743.356 -1332.57 -19.8925 84.4117 19.4497 0.464544 0.32303 -0.567812 0.464652 0.358506 -0.546107 0.46118 0.461585 -0.462276 0.461086 0.382786 -0.529373 4.61449 1.16858 3.10573 4.64298 -0.694649 3.59574 -0.0 0.0 -0.0 4.34573 -3.0973 8.2389 -4.93544 -19.8548 69.0807 1.52725 -37.1071 0.512627 -1.24534 -0.0455401 0.15251 0.815498 -9.40499 1.51098 -0.0 0.0 -0.0 5.4943 -1.26386 -10.6549 -17.9597 3.91854 -61.5443 0.713439 19.4643 -0.122364 9.71054 -0.239596 1.21581 0.497469 -1.95485 -4.12868 0.0 0.0 0.0 -7.75802 -19.8586 6.00748 3.64588 -0.167216 -0.534323 32.8377 23.5631 -4.39118 -21.0999 0.0 0.0 -0.0 0.0 -0.0 0.619968 -14.9692 1.01604 -6.89867 -0.221953 -1.03484 29.2077 5.48414 3.88308 -19.6145 0.0 0.0 0.0 0.0 0.0 
3643.59 744.306 -1336.68 -22.2908 84.0552 21.8769 0.52059 0.430289 -0.530064 0.520627 0.463146 -0.50161 0.516479 0.554674 -0.398062 0.516586 0.484847 -0.480666 4.7666 0.926563 2.81506 4.79114 -0.863903 3.25667 -0.0 0.0 -0.0 4.42885 -1.95793 8.46042 -5.44831 -19.1476 68.716 1.55933 -37.6815 0.532107 -1.17163 -0.0427521 0.14351 0.76897 -9.54326 1.13765 -0.0 0.0 -0.0 5.73454 -0.583879 -11.1084 -17.0571 4.22493 -61.8231 0.622925 17.1492 -0.0939271 9.66556 -0.238964 1.2101 0.449492 -2.31223 -3.95585 0.0 0.0 0.0 -7.67687 -20.0362 5.74735 3.92551 -0.181443 -0.574858 34.6942 23.983 -4.60156 -21.2626 0.0 0.0 -0.0 0.0 -0.0 1.3985 -15.1193 0.779101 -8.43494 -0.254304 -1.26836 31.0776 4.59776 4.07144 -18.8825 0.0 0.0 0.0 0.0 0.0 
3638.79 745.092 -1338.65 -25.2878 84.1675 24.7606 0.636015 0.43745 -0.542057 0.636055 0.471056 -0.513123 0.631742 0.56392 -0.40888 0.631847 0.492268 -0.492809 5.58521 1.08957 2.08856 5.59662 0.02023 2.4529 -0.0 0.0 -0.0 3.90278 -1.44143 7.45125 -6.54849 -20.421 69.5293 1.52327 -37.0351 0.510224 -1.02571 -0.0372674 0.125684 0.808524 -9.70914 1.33372 -0.0 0.0 -0.0 5.88459 0.0275613 -11.3908 -16.7413 4.30335 -61.7812 0.579701 16.0225 -0.0815883 10.1569 -0.245625 1.27251 0.504456 -3.11667 -4.64951 0.0 0.0 0.0 -7.0914 -20.122 5.5827 3.47938 -0.158839 -0.510156 35.2398 22.5336 -4.6219 -21.2645 0.0 0.0 -0.0 0.0 -0.0 1.75695 -15.1505 0.911487 -9.0038 -0.264693 -1.35504 29.4675 3.09072 3.88143 -19.2009 0.0 0.0 0.0 0.0 0.0 
3635.66 739.911 -1343.48 -19.0104 83.9847 18.5486 0.52762 0.577345 -0.527424 0.527568 0.609736 -0.489617 0.522205 0.695812 -0.356857 0.522583 0.630721 -0.462271 4.88438 1.2479 1.00261 4.88747 1.26605 1.20814 -0.0 0.0 -0.0 3.47016 -0.319355 6.67128 -7.36232 -22.005 69.4714 1.47089 -36.0762 0.479026 -1.11268 -0.040531 0.136311 0.679269 -10.1914 0.254692 -0.0 0.0 -0.0 6.24624 3.02058 -12.0488 -13.6942 3.89641 -62.3487 0.367452 10.3165 -0.033171 10.3652 -0.248287 1.29898 0.391674 -3.35873 -4.0003 0.0 0.0 0.0 -2.02997 -19.3461 5.7244 -9.20992 0.268245 1.38646 40.302 21.4289 -5.09182 -19.9342 0.0 0.0 -0.0 0.0 -0.0 1.77405 -17.6242 0.411045 -10.083 -0.282035 -1.51973 32.2755 2.34052 4.16902 -18.8662 0.0 0.0 0.0 0.0 0.0 
3633.2 740.477 -1348.3 -21.8134 84.2715 21.5252 0.532672 0.487414 -0.575541 0.532704 0.523049 -0.54336 0.527625 0.621678 -0.427009 0.527787 0.546438 -0.519833 5.01174 1.56726 1.44429 5.01728 1.42365 1.72914 -0.0 0.0 -0.0 3.23547 0.942055 6.29474 -8.23968 -23.1872 69.2109 1.3979 -34.6998 0.436753 -1.41994 -0.0521899 0.173813 0.802541 -10.201 1.08257 -0.0 0.0 -0.0 6.56262 4.6067 -12.6531 -12.3341 3.32984 -62.4376 0.331245 9.31877 -0.026997 10.8714 -0.254355 1.36336 0.396217 -3.15302 -3.9463 0.0 0.0 0.0 -1.57625 -20.4922 5.39098 -9.22789 0.268549 1.3892 39.9727 21.3942 -5.06026 -18.9753 0.0 0.0 -0.0 0.0 -0.0 1.48721 -19.027 -0.229822 -10.2053 -0.283804 -1.5384 32.5775 1.06239 4.18754 -18.6433 0.0 0.0 0.0 0.0 0.0 
3624.4 735.538 -1353.79 -13.3673 84.4991 13.4834 0.479523 0.490395 -0.600964 0.479569 0.527642 -0.568542 0.474211 0.631664 -0.450161 0.474354 0.552643 -0.544271 4.4559 1.69279 0.901959 4.46109 2.13179 1.11795 -0.0 0.0 -0.0 2.97065 2.46192 5.88537 -9.83993 -23.206 69.2123 1.35103 -33.7911 0.410377 -1.42067 -0.052218 0.173903 0.783564 -10.53 0.81334 -0.0 0.0 -0.0 7.02395 7.04573 -13.5407 -9.88416 3.35129 -62.8506 0.196942 5.57223 -0.00958422 11.1225 -0.257153 1.39531 0.313354 -3.94228 -3.72064 0.0 0.0 0.0 0.156538 -19.3481 5.55974 -16.5854 0.320665 2.51613 42.1963 20.9169 -5.24996 -18.1954 0.0 0.0 -0.0 0.0 -0.0 -0.136446 -19.7281 -0.539431 -11.2307 -0.297068 -1.69518 35.3859 1.43298 4.46843 -18.0573 0.0 0.0 0.0 0.0 0.0 
3617.84 733.573 -1358.65 -6.82731 84.9668 6.47158 0.315938 0.128871 -0.561156 0.316098 0.164317 -0.551818 0.31453 0.273859 -0.506464 0.314223 0.190436 -0.543358 3.23004 1.83462 1.19139 3.23614 2.17138 1.45763 -0.0 0.0 -0.0 2.17767 3.97368 4.50678 -11.2314 -23.7189 69.7601 1.35353 -33.84 0.411766 -1.52521 -0.0562306 0.186648 0.67252 -10.5474 0.0565815 -0.0 0.0 -0.0 7.37449 8.90259 -14.2195 -7.90724 3.69779 -62.4474 0.22423 6.33841 -0.0124155 11.0503 -0.256363 1.38612 0.245145 -4.57424 -3.52913 0.0 0.0 0.0 2.78391 -13.7081 5.78859 -22.3 0.26123 3.39058 42.2453 20.3823 -5.2404 -16.8992 0.0 0.0 -0.0 0.0 -0.0 -1.5931 -15.272 -0.0357801 -11.7242 -0.302452 -1.77071 37.1936 4.74037 4.67771 -17.5901 0.0 0.0 0.0 0.0 0.0 
3614.34 731.502 -1363.43 0.668888 84.7419 -1.13905 -0.00498267 0.189482 -0.516991 -0.00486143 0.221995 -0.503887 -0.00681871 0.323003 -0.44593 -0.00700989 0.248524 -0.491345 2.82971 2.3154 2.0216 2.84163 2.31832 2.41756 -0.0 0.0 -0.0 1.81064 5.50215 3.95194 -12.3881 -23.5569 69.4365 1.34202 -33.6142 0.405379 -2.15646 -0.0809554 0.263454 0.706254 -11.4949 -0.122656 -0.0 0.0 -0.0 7.67933 10.5229 -14.8107 -5.7042 4.48182 -61.4918 0.204606 5.78762 -0.0103427 11.1041 -0.256953 1.39296 0.239814 -5.1121 -3.71399 0.0 0.0 0.0 4.33521 -14.0311 5.62038 -28.3337 0.104274 4.30281 41.7773 16.9423 -5.12288 -17.1219 0.0 0.0 -0.0 0.0 -0.0 -2.76424 -16.7795 -0.901754 -10.8578 -0.29257 -1.63814 36.1226 2.55314 4.55001 -17.8581 0.0 0.0 0.0 0.0 0.0 
3608.16 726.32 -1365.1 6.54586 81.816 -7.0396 -0.128543 0.283055 -0.551277 -0.12843 0.31756 -0.532149 -0.131418 0.423363 -0.452539 -0.131536 0.346581 -0.513721 1.93781 2.36504 1.02974 1.9475 3.28863 1.32937 -0.0 0.0 -0.0 2.06297 6.03678 4.45232 -14.3886 -22.4587 69.5924 1.25055 -31.7763 0.355963 -1.82768 -0.0679719 0.223483 0.387006 -10.8247 -1.98889 -0.0 0.0 -0.0 8.11728 13.1212 -15.6464 -3.94804 5.47012 -61.5158 0.194356 5.49952 -0.00933482 9.84678 -0.241483 1.23311 -0.106267 -5.76418 -1.71197 0.0 0.0 0.0 7.64094 -5.04664 3.98215 -40.8007 -0.518492 6.11 39.0636 12.2351 -4.81299 -14.6675 0.0 0.0 -0.0 0.0 -0.0 -3.64733 -13.1083 0.24786 -12.3581 -0.308413 -1.86779 38.7005 4.96685 4.81748 -17.1405 0.0 0.0 0.0 0.0 0.0 
